<svg width="33" height="64" viewBox="0 0 33 64" fill="none" xmlns="http://www.w3.org/2000/svg">
<path d="M32.2827 2.12863C29.1668 0.709544 25.4117 0 21.0173 0C17.2526 0 13.7993 0.721807 10.6573 2.16542C7.54359 3.60904 5.10926 5.61877 3.35428 8.19463C1.6276 10.7422 0.764266 13.6294 0.764266 16.8563H13.035C13.035 14.79 13.8276 13.1199 15.4127 11.8461C16.9978 10.544 18.9651 9.893 21.3145 9.893C23.9187 9.893 25.9567 10.5865 27.4287 11.9735C28.9289 13.3605 29.679 15.2995 29.679 17.7904C29.679 20.3663 28.9289 22.4326 27.4287 23.9895C25.9284 25.5463 23.6215 26.3247 20.5078 26.3247H13.9691V35.9205H20.4654C27.2588 35.9205 30.6556 39.0059 30.6556 45.1766C30.6556 47.7242 29.8205 49.7764 28.1505 51.3332C26.5087 52.8618 24.2301 53.626 21.3145 53.626C18.767 53.626 16.6157 52.8901 14.8607 51.4181C13.1341 49.9462 12.2707 48.0497 12.2707 45.7286H0C0 51.0785 1.95312 55.381 5.85938 58.6362C9.79393 61.8914 14.8466 63.519 21.0173 63.519C25.3289 63.519 29.0841 62.8113 32.2827 61.396V2.12863Z" fill="#D3D3D8"/>
</svg>
