<?xml version="1.0" encoding="utf-8"?>
<!-- Generator: Adobe Illustrator 24.0.3, SVG Export Plug-In . SVG Version: 6.00 Build 0)  -->
<svg version="1.1" id="Слой_1" xmlns="http://www.w3.org/2000/svg" xmlns:xlink="http://www.w3.org/1999/xlink" x="0px" y="0px"
	 viewBox="0 0 48.8 52" style="enable-background:new 0 0 48.8 52;" xml:space="preserve">
<style type="text/css">
	.st0{fill:#FFFFFF;}
</style>
<path class="st0" d="M26,6.5h-3.2V0H26V6.5z M10.6,12.9L6,8.3L8.3,6l4.6,4.6L10.6,12.9z M0,22.8h6.5V26H0V22.8z M48.8,22.8V26h-6.5
	v-3.2H48.8z M38.2,12.9l-2.3-2.3L40.5,6l2.3,2.3L38.2,12.9z M24.4,13c1.6,0,3,0.3,4.4,0.9c1.4,0.6,2.6,1.4,3.6,2.4
	c1,1,1.8,2.2,2.4,3.6c0.6,1.4,0.9,2.8,0.9,4.4v17.9H39v3.2h-6.5V52h-3.2v-6.5h-9.8V52h-3.2v-6.5H9.8v-3.2H13V24.4
	c0-1.6,0.3-3,0.9-4.4c0.6-1.4,1.4-2.6,2.4-3.6c1-1,2.2-1.8,3.6-2.4C21.3,13.3,22.8,13,24.4,13z M32.5,42.2V24.4
	c0-1.1-0.2-2.2-0.7-3.1c-0.4-1-1-1.8-1.8-2.6c-0.7-0.7-1.6-1.3-2.6-1.8c-1-0.4-2-0.7-3.1-0.7s-2.2,0.2-3.1,0.7c-1,0.4-1.8,1-2.6,1.8
	c-0.7,0.7-1.3,1.6-1.8,2.6c-0.4,1-0.6,2-0.6,3.1v17.9H32.5z"/>
</svg>
