<?xml version="1.0" encoding="utf-8"?>
<!-- Generator: Adobe Illustrator 24.0.3, SVG Export Plug-In . SVG Version: 6.00 Build 0)  -->
<svg version="1.1" id="Слой_1" xmlns="http://www.w3.org/2000/svg" xmlns:xlink="http://www.w3.org/1999/xlink" x="0px" y="0px"
	 viewBox="0 0 33.4 38" style="enable-background:new 0 0 33.4 38;" xml:space="preserve">
<style type="text/css">
	.st0{fill:#FFFFFF;}
</style>
<path class="st0" d="M32.5,23.5c0.5-0.6,0.9-1.4,0.9-2.2c0-1.8-1.5-3.3-3.3-3.3h-6.5c0.6-1.9,0.9-4.5,0.9-5.6v-1.1
	c0-2.5-2-4.5-4.5-4.5h-1.1c-0.5,0-1,0.3-1.1,0.8L17.2,10c-0.8,3.4-3.5,7.1-6.3,7.8c-0.5-1.2-1.7-2.1-3.1-2.1H1.1
	c-0.6,0-1.1,0.5-1.1,1.1v20C0,37.5,0.5,38,1.1,38h6.7c1.3,0,2.5-0.8,3-1.9l3.8,1.3c1.3,0.4,2.6,0.6,3.9,0.6h9.3
	c1.8,0,3.3-1.5,3.3-3.3c0-0.4-0.1-0.8-0.2-1.2c1.4-0.4,2.5-1.7,2.5-3.2c0-0.9-0.3-1.6-0.9-2.2c0.5-0.6,0.9-1.4,0.9-2.2
	C33.4,24.9,33.1,24.1,32.5,23.5z M8.9,34.7c0,0.6-0.5,1.1-1.1,1.1H2.2V18h5.6c0.6,0,1.1,0.5,1.1,1.1V34.7z M27.8,24.6h2.2
	c0.6,0,1.1,0.5,1.1,1.1s-0.5,1.1-1.1,1.1h-2.2c-0.6,0-1.1,0.5-1.1,1.1c0,0.6,0.5,1.1,1.1,1.1h2.2c0.6,0,1.1,0.5,1.1,1.1
	s-0.5,1.1-1.1,1.1h-2.2c-0.6,0-1.1,0.5-1.1,1.1c0,0.6,0.5,1.1,1.1,1.1c0.6,0,1.1,0.5,1.1,1.1c0,0.6-0.5,1.1-1.1,1.1h-9.3
	c-1.1,0-2.1-0.2-3.2-0.5l-4.2-1.4V20.1c1.7-0.3,3.5-1.4,5-3.2c1.5-1.8,2.7-4.1,3.3-6.3L19.8,9H20c1.2,0,2.2,1,2.2,2.2v1.1
	c0,1.5-0.5,4.4-1.1,5.6h-2.3c-0.6,0-1.1,0.5-1.1,1.1s0.5,1.1,1.1,1.1h11.1c0.6,0,1.1,0.5,1.1,1.1s-0.5,1.1-1.1,1.1h-2.2
	c-0.6,0-1.1,0.5-1.1,1.1C26.7,24.1,27.2,24.6,27.8,24.6z"/>
<path class="st0" d="M5.6,33.5c0.6,0,1.1-0.5,1.1-1.1c0-0.6-0.5-1.1-1.1-1.1c-0.6,0-1.1,0.5-1.1,1.1C4.5,33,5,33.5,5.6,33.5z"/>
<path class="st0" d="M21.2,0C20.5,0,20,0.5,20,1.1v2.3c0,0.6,0.5,1.1,1.1,1.1c0.6,0,1.1-0.5,1.1-1.1V1.1C22.3,0.5,21.8,0,21.2,0z"/>
<path class="st0" d="M16.4,4.9l-1.6-1.6c-0.4-0.4-1.1-0.4-1.6,0c-0.4,0.4-0.4,1.1,0,1.6l1.6,1.6c0.4,0.4,1.1,0.4,1.6,0
	C16.9,6,16.9,5.3,16.4,4.9z"/>
<path class="st0" d="M29,3.3c-0.4-0.4-1.1-0.4-1.6,0l-1.6,1.6c-0.4,0.4-0.4,1.1,0,1.6s1.1,0.4,1.6,0L29,4.9
	C29.5,4.5,29.5,3.8,29,3.3z"/>
</svg>
