<?xml version="1.0" encoding="utf-8"?>
<!-- Generator: Adobe Illustrator 24.0.3, SVG Export Plug-In . SVG Version: 6.00 Build 0)  -->
<svg version="1.1" id="Слой_1" xmlns="http://www.w3.org/2000/svg" xmlns:xlink="http://www.w3.org/1999/xlink" x="0px" y="0px"
	 viewBox="0 0 35 35" style="enable-background:new 0 0 35 35;" xml:space="preserve">
<style type="text/css">
	.st0{fill:#FFFFFF;}
</style>
<path class="st0" d="M30.9,7.7c-2.3,0-4.1,1.8-4.1,4.1v1.4h-4.9c1.6-2.8,2.5-4.9,2.5-6.3c0-3.8-3.1-6.8-6.8-6.8s-6.8,3.1-6.8,6.8
	c0,1.4,0.8,3.5,2.5,6.3c-0.6,0-4.5,0-4.9,0v-1.4c0-2.3-1.8-4.1-4.1-4.1C1.8,7.7,0,9.5,0,11.8v3.8c0,0.4,0.3,0.7,0.7,0.7
	c0.4,0,0.7-0.3,0.7-0.7v-3.8C1.4,10.2,2.6,9,4.1,9c1.5,0,2.7,1.2,2.7,2.7v16.1c-0.7-0.7-1.7-1-2.7-1c-1,0-2,0.4-2.7,1v-6.8
	c0-0.4-0.3-0.7-0.7-0.7c-0.4,0-0.7,0.3-0.7,0.7v9.8C0,33.2,2,35,4.3,35h26.6c2.3,0,4.1-1.8,4.1-4.1V11.8C35,9.5,33.2,7.7,30.9,7.7z
	 M28.2,11.8c0-1.5,1.2-2.7,2.7-2.7c1.5,0,2.7,1.2,2.7,2.7v16.1c-0.5-0.4-1-0.7-1.7-0.9c-1.4-0.4-2.8,0-3.8,0.9
	C28.2,27.3,28.2,12.6,28.2,11.8z M26.8,21.3H18c-2.3-2.2-6.7-6.3-7.2-6.8H14c1.5,2.4,3,4.4,3,4.4c0.1,0.2,0.3,0.3,0.5,0.3
	s0.4-0.1,0.5-0.3c0,0,1.5-2,3-4.4h5.8V21.3z M17.5,1.4c3,0,5.5,2.5,5.5,5.5c0,2.5-4,8.4-5.5,10.5C16,15.2,12,9.4,12,6.8
	C12,3.8,14.5,1.4,17.5,1.4z M1.4,30.9c0-1.5,1.2-2.7,2.7-2.7c1.5,0,2.7,1.2,2.7,2.7c0,0.4,0.3,0.7,0.7,0.7c0.4,0,0.7-0.3,0.7-0.7
	V19.5l6.9,6.6l-7.9,7.5H4.3C2.8,33.6,1.4,32.5,1.4,30.9z M16.6,26.6c0.1-0.1,0.2-0.3,0.2-0.5c0-0.2-0.1-0.4-0.2-0.5l-8.4-8v-3.1h0.7
	c0,0,8.1,7.7,8.4,8c0.1,0.1,0.3,0.2,0.5,0.2h9v2.7h-5.2c-0.2,0-0.4,0.1-0.5,0.2l-8,8H9.2L16.6,26.6z M30.9,33.6H15l6.8-6.8h4.9v4.1
	c0,0.4,0.3,0.7,0.7,0.7c0.4,0,0.7-0.3,0.7-0.7c0-1.8,1.7-3.1,3.5-2.6c1.1,0.3,2,1.3,2,2.6C33.6,32.4,32.4,33.6,30.9,33.6z"/>
<path class="st0" d="M17.5,10.3c1.9,0,3.4-1.5,3.4-3.4s-1.5-3.4-3.4-3.4S14.1,5,14.1,6.8S15.6,10.3,17.5,10.3z M17.5,4.8
	c1.1,0,2.1,0.9,2.1,2.1c0,1.1-0.9,2.1-2.1,2.1S15.4,8,15.4,6.8C15.4,5.7,16.4,4.8,17.5,4.8z"/>
<path class="st0" d="M0.7,19c0.4,0,0.7-0.3,0.7-0.7c0-0.4-0.3-0.7-0.7-0.7c-0.4,0-0.7,0.3-0.7,0.7C0,18.7,0.3,19,0.7,19z"/>
</svg>
