<svg width="33" height="63" viewBox="0 0 33 63" fill="none" xmlns="http://www.w3.org/2000/svg">
<path d="M32.0278 1.90935C29.1085 0.636451 25.5941 0 21.4844 0C17.3234 0 13.6011 0.891644 10.3176 2.67493C7.03408 4.42991 4.48653 6.86424 2.67493 9.97792C0.891644 13.0916 0 16.5308 0 20.2955H12.3132C12.3132 17.1818 13.1058 14.6767 14.6909 12.7802C16.3043 10.8554 18.4981 9.893 21.2721 9.893C23.8479 9.893 25.8294 10.6856 27.2164 12.2707C28.6034 13.8276 29.2969 15.9788 29.2969 18.7245C29.2969 20.7343 28.6317 22.8572 27.3013 25.0934C25.9992 27.3296 23.9753 29.9479 21.2296 32.9484L1.23132 54.2629V62.6698H32.0278V52.7768H17.0262L31.0802 37.9586C31.4041 37.6037 31.72 37.2525 32.0278 36.9051V1.90935Z" fill="#D3D3D8"/>
</svg>
