<svg width="31" height="63" viewBox="0 0 31 63" fill="none" xmlns="http://www.w3.org/2000/svg">
<path d="M30.542 0H5.13757L1.57099 31.4198L11.3366 33.84L12.5255 32.7361C14.3371 31.2075 16.7006 30.4433 19.6162 30.4433C22.7865 30.4433 25.2349 31.3774 26.9616 33.2456C28.6883 35.1138 29.5516 37.8029 29.5516 41.3128C29.5516 44.9643 28.8015 47.7949 27.3013 49.8047C25.8011 51.7861 23.6639 52.7768 20.8899 52.7768C18.399 52.7768 16.3751 52.0692 14.8183 50.6539C13.2897 49.2103 12.3981 47.2005 12.1433 44.6247H0C0.113224 48.1346 1.08979 51.2625 2.92969 54.0082C4.79789 56.7538 7.3313 58.891 10.5299 60.4195C13.7285 61.9197 17.196 62.6698 20.9324 62.6698C24.5386 62.6698 27.7418 62.0553 30.542 60.8262V22.4393C28.3093 21.6045 25.7855 21.1872 22.9704 21.1872C19.6869 21.1872 16.5874 21.9656 13.6719 23.5224L15.2004 10.2327H30.542V0Z" fill="#D3D3D8"/>
</svg>
