<?xml version="1.0" encoding="utf-8"?>
<!-- Generator: Adobe Illustrator 24.0.3, SVG Export Plug-In . SVG Version: 6.00 Build 0)  -->
<svg version="1.1" id="Слой_1" xmlns="http://www.w3.org/2000/svg" xmlns:xlink="http://www.w3.org/1999/xlink" x="0px" y="0px"
	 viewBox="0 0 50 38.4" style="enable-background:new 0 0 50 38.4;" xml:space="preserve">
<style type="text/css">
	.st0{fill:#FFFFFF;}
</style>
<path class="st0" d="M50,34.8C50,34.8,50,34.8,50,34.8c0-0.1,0-0.1,0-0.1c0,0,0,0,0,0c0,0,0-0.1,0-0.1c0,0,0,0,0,0c0,0,0,0,0-0.1
	c0,0,0,0,0,0L46,26.8V1.4C46,0.6,45.4,0,44.6,0H5.4C4.6,0,4,0.6,4,1.4v25.4l-3.9,7.7c0,0,0,0,0,0c0,0,0,0,0,0.1c0,0,0,0,0,0
	c0,0,0,0,0,0.1c0,0,0,0,0,0c0,0,0,0.1,0,0.1c0,0,0,0,0,0c0,0,0,0,0,0v1.9c0,0.9,0.8,1.7,1.7,1.7h46.6c0.9,0,1.7-0.8,1.7-1.7L50,34.8
	C50,34.9,50,34.9,50,34.8z M5.5,1.5h39.1v24.8H5.5V1.5z M5.2,27.7h39.6l3.3,6.4H32l-0.8-2.9c-0.2-0.6-0.7-1-1.3-1h-9.7
	c-0.6,0-1.2,0.4-1.3,1L18,34.2H1.9L5.2,27.7z M30.5,34.2H19.5l0.7-2.5h9.6L30.5,34.2z M48.5,36.8c0,0.1-0.1,0.2-0.2,0.2H1.7
	c-0.1,0-0.2-0.1-0.2-0.2v-1.1h47.1V36.8z"/>
<path class="st0" d="M42.2,15.1c-0.4,0-0.7,0.3-0.7,0.7v7.4h-33v-7.4c0-0.4-0.3-0.7-0.7-0.7S7,15.4,7,15.8v7.7
	c0,0.6,0.5,1.1,1.1,1.1h33.7c0.6,0,1.1-0.5,1.1-1.1v-7.7C43,15.4,42.6,15.1,42.2,15.1z"/>
<path class="st0" d="M41.8,3H8.2C7.5,3,7,3.5,7,4.2v7.7c0,0.4,0.3,0.7,0.7,0.7s0.7-0.3,0.7-0.7V4.5h33v7.4c0,0.4,0.3,0.7,0.7,0.7
	c0.4,0,0.7-0.3,0.7-0.7V4.2C43,3.5,42.5,3,41.8,3z"/>
</svg>
