<?xml version="1.0" encoding="utf-8"?>
<!-- Generator: Adobe Illustrator 24.0.3, SVG Export Plug-In . SVG Version: 6.00 Build 0)  -->
<svg version="1.1" id="Слой_1" xmlns="http://www.w3.org/2000/svg" xmlns:xlink="http://www.w3.org/1999/xlink" x="0px" y="0px"
	 viewBox="0 0 51.1 58" style="enable-background:new 0 0 51.1 58;" xml:space="preserve">
<style type="text/css">
	.st0{fill:#FFFFFF;}
</style>
<path class="st0" d="M26.2,31.7c-0.1,0-0.2,0-0.3,0c-1.1-0.1-1.9-1-1.9-2.1c0-0.5-0.4-1-1-1s-1,0.4-1,1c0,1.8,1.2,3.4,3,3.9v1
	c0,0.5,0.4,1,1,1c0.5,0,1-0.4,1-1v-0.9c2-0.4,3.4-2.3,3.2-4.4c-0.2-2.1-2-3.6-4-3.6c-1.2,0-2.2-1-2.2-2.2c0-1.2,1-2.2,2.2-2.2
	c1.2,0,2.2,1,2.2,2.2c0,0.5,0.4,1,1,1s1-0.4,1-1c0-1.9-1.3-3.6-3.2-4v-0.9c0-0.5-0.4-1-1-1c-0.5,0-1,0.4-1,1v0.9
	c-2,0.5-3.2,2.4-3,4.5c0.3,2,2,3.5,4,3.5c1.2,0,2.1,0.9,2.2,2.1C28.3,30.6,27.4,31.6,26.2,31.7z"/>
<path class="st0" d="M12.3,26.5c0,7.6,6.2,13.8,13.8,13.8s13.8-6.2,13.8-13.8s-6.2-13.8-13.8-13.8C18.5,12.7,12.4,18.8,12.3,26.5z
	 M26.1,14.6c6.6,0,11.9,5.3,11.9,11.9s-5.3,11.9-11.9,11.9S14.3,33,14.3,26.5C14.3,19.9,19.6,14.6,26.1,14.6z"/>
<path class="st0" d="M44.6,42.6l-7.5,3.5c-1-1.9-3-3.1-5.2-3.2l-6.9-0.2c-1.1,0-2.2-0.3-3.1-0.8l-0.7-0.4c-3.6-1.9-7.9-1.9-11.4,0
	l0-1.6c0-0.5-0.4-1-0.9-1l-7.5-0.2c-0.5,0-1,0.4-1,0.9L0,56.3c0,0.5,0.4,1,0.9,1l7.5,0.2h0c0.5,0,0.9-0.4,1-0.9l0-0.8l2-1
	c0.8-0.4,1.7-0.5,2.5-0.3l11.7,3.3c0,0,0,0,0.1,0c0.8,0.2,1.7,0.3,2.6,0.3c1.8,0,3.6-0.4,5.3-1.2c0,0,0.1,0,0.1-0.1l17-11
	c0.4-0.3,0.6-0.8,0.3-1.3C49.7,42.3,46.9,41.4,44.6,42.6z M1.9,55.4l0.4-14.7L8,40.9L7.6,55.5L1.9,55.4z M32.7,55.1
	c-2.1,0.9-4.4,1.2-6.6,0.7l-11.7-3.3c-1.3-0.4-2.7-0.2-3.9,0.4l-1,0.5l0.3-9.7c3.2-2.1,7.2-2.3,10.6-0.6l0.7,0.4
	c1.2,0.6,2.6,1,3.9,1l6.9,0.2c1.9,0.1,3.6,1.4,4,3.3l-10.2-0.3c-0.5,0-1,0.4-1,0.9c0,0.5,0.4,1,0.9,1l11.3,0.3h0
	c0.5,0,0.9-0.4,1-0.9c0-0.4,0-0.8-0.1-1.2l7.6-3.6c0,0,0,0,0,0c1.1-0.5,2.4-0.4,3.3,0.5L32.7,55.1z"/>
<path class="st0" d="M27.1,10V1c0-0.5-0.4-1-1-1c-0.5,0-1,0.4-1,1v9c0,0.5,0.4,1,1,1C26.7,10.9,27.1,10.5,27.1,10z"/>
<path class="st0" d="M34.2,10V5.7c0-0.5-0.4-1-1-1c-0.5,0-1,0.4-1,1V10c0,0.5,0.4,1,1,1C33.8,10.9,34.2,10.5,34.2,10z"/>
<path class="st0" d="M20,10V5.7c0-0.5-0.4-1-1-1c-0.5,0-1,0.4-1,1V10c0,0.5,0.4,1,1,1C19.5,10.9,20,10.5,20,10z"/>
</svg>
