<?xml version="1.0" encoding="utf-8"?>
<!-- Generator: Adobe Illustrator 24.0.3, SVG Export Plug-In . SVG Version: 6.00 Build 0)  -->
<svg version="1.1" id="Слой_1" xmlns="http://www.w3.org/2000/svg" xmlns:xlink="http://www.w3.org/1999/xlink" x="0px" y="0px"
	 viewBox="0 0 54.4 54.4" style="enable-background:new 0 0 54.4 54.4;" xml:space="preserve">
<style type="text/css">
	.st0{fill:#FFFFFF;}
</style>
<path class="st0" d="M32.3,24.5l-1.6-3.1c-0.1-0.2-0.2-0.3-0.3-0.4c-0.1-0.1-0.3-0.1-0.5-0.1h-9.1c-0.2,0-0.3,0-0.5,0.1
	c-0.1,0.1-0.3,0.2-0.3,0.4l-1.6,3.1h-1.3c-0.2,0-0.5,0.1-0.6,0.3c-0.2,0.2-0.3,0.4-0.3,0.6v28.1c0,0.2,0.1,0.5,0.3,0.6
	c0.2,0.2,0.4,0.3,0.6,0.3h16.3c0.2,0,0.5-0.1,0.6-0.3c0.2-0.2,0.3-0.4,0.3-0.6V25.4c0-0.2-0.1-0.5-0.3-0.6c-0.2-0.2-0.4-0.3-0.6-0.3
	H32.3z M21.4,22.7h7.9l0.9,1.8h-9.8L21.4,22.7z M32.6,26.3V29H18.1v-2.7H32.6z M18.1,52.6V30.8h14.5v21.8H18.1z"/>
<path class="st0" d="M20.8,33.5h1.8v1.8h-1.8V33.5z"/>
<path class="st0" d="M24.5,33.5h1.8v1.8h-1.8V33.5z"/>
<path class="st0" d="M20.8,37.2h1.8V39h-1.8V37.2z"/>
<path class="st0" d="M24.5,37.2h1.8V39h-1.8V37.2z"/>
<path class="st0" d="M20.8,40.8h1.8v1.8h-1.8V40.8z"/>
<path class="st0" d="M24.5,40.8h1.8v1.8h-1.8V40.8z"/>
<path class="st0" d="M20.8,44.4h1.8v1.8h-1.8V44.4z"/>
<path class="st0" d="M24.5,44.4h1.8v1.8h-1.8V44.4z"/>
<path class="st0" d="M20.8,48h1.8v1.8h-1.8V48z"/>
<path class="st0" d="M24.5,48h1.8v1.8h-1.8V48z"/>
<path class="st0" d="M28.1,33.5h1.8v1.8h-1.8V33.5z"/>
<path class="st0" d="M28.1,37.2h1.8V39h-1.8V37.2z"/>
<path class="st0" d="M28.1,40.8h1.8v1.8h-1.8V40.8z"/>
<path class="st0" d="M28.1,44.4h1.8v1.8h-1.8V44.4z"/>
<path class="st0" d="M28.1,48h1.8v1.8h-1.8V48z"/>
<path class="st0" d="M0.9,21.8h3.6c0.2,0,0.5-0.1,0.6-0.3c0.2-0.2,0.3-0.4,0.3-0.6v-5.4h1.8v38.1c0,0.2,0.1,0.5,0.3,0.6
	c0.2,0.2,0.4,0.3,0.6,0.3h5.4c0.2,0,0.5-0.1,0.6-0.3c0.2-0.2,0.3-0.4,0.3-0.6V23.6h0.9c0.2,0,0.4-0.1,0.6-0.2
	c0.2-0.1,0.3-0.3,0.3-0.5l1.7-7.4h14.7c0.2,0,0.3,0,0.5-0.1c0.1-0.1,0.3-0.2,0.3-0.4c0.1-0.2,0.1-0.3,0.1-0.5c0-0.2-0.1-0.3-0.2-0.5
	l-4.5-5.4c-0.1-0.1-0.2-0.2-0.3-0.2c-0.1-0.1-0.3-0.1-0.4-0.1h-9.3l-2.5-7.5c-0.1-0.2-0.2-0.3-0.3-0.4C15.8,0.1,15.6,0,15.4,0h-2.7
	c-0.2,0-0.4,0.1-0.5,0.2l0,0L6.1,4.5H3.6C3.4,4.5,3.2,4.6,3,4.8L0.3,7.5C0.1,7.7,0,7.9,0,8.2v12.7c0,0.2,0.1,0.5,0.3,0.6
	C0.4,21.7,0.7,21.8,0.9,21.8z M7.2,5.9l3.7-2.6L9.1,8.8c0,0,0,0,0,0c0,0.1,0,0.1,0,0.2c0,0,0,0,0,0c0,0,0,0,0,0V10H7.2V5.9z
	 M20.7,10l-3,3.6h-0.5V10H20.7z M23.1,10h0.5v3.6h-3.5L23.1,10z M12.8,13.6l2.6-3.1v3.1H12.8z M10.9,13.1V10h2.6L10.9,13.1z
	 M9.1,11.8v1.8H1.8v-1.8H9.1z M3.6,19.9H1.8v-4.5h1.8V19.9z M9.1,34.6l3.6,3v0.5H9.1V34.6z M9.1,42.7l3.6,3v0.5H9.1V42.7z M9.1,40.4
	v-0.5h3.6v3.5L9.1,40.4z M9.1,32.2v-0.5h3.6v3.5L9.1,32.2z M12.7,29.9H9.1v-3.5l3.6,3V29.9z M9.1,52.6V48h3.6v4.5H9.1z M12.7,27.1
	l-3.6-3v-0.5h3.6V27.1z M9.1,21.8v-6.3h1.8V19c0,0.2,0.1,0.5,0.3,0.6c0.2,0.2,0.4,0.3,0.6,0.3h3.3l-0.4,1.8H9.1z M15.5,18.1h-2.8
	v-2.7h3.4L15.5,18.1z M30.7,13.6h-5.3V10h2.3L30.7,13.6z M14.8,1.8l2.1,6.3h-5.6l2.1-6.3H14.8z M4,6.3h1.4V10H1.8V8.5L4,6.3z"/>
<path class="st0" d="M53.5,21.8h-3.7c-0.2,0-0.4-0.1-0.6-0.2c-0.2-0.1-0.3-0.3-0.4-0.5l0,0c-0.1-0.2-0.1-0.4-0.1-0.6
	c0-0.2,0.1-0.4,0.3-0.5l2.6-2.6c0.1-0.1,0.2-0.2,0.2-0.3c0-0.1,0.1-0.2,0.1-0.3c0-0.1,0-0.2-0.1-0.3c0-0.1-0.1-0.2-0.2-0.3l-5.1-5.1
	c-0.2-0.2-0.4-0.3-0.6-0.3c-0.2,0-0.5,0.1-0.6,0.3l-2.6,2.6c-0.1,0.1-0.3,0.3-0.5,0.3c-0.2,0-0.4,0-0.6-0.1l0,0
	c-0.2-0.1-0.4-0.2-0.5-0.4c-0.1-0.2-0.2-0.4-0.2-0.6V9.1c0-0.2-0.1-0.5-0.3-0.6c-0.2-0.2-0.4-0.3-0.6-0.3h-5.4V10H39v2.8
	c0,0.4,0.1,0.8,0.3,1.2c-1-0.2-2-0.4-3-0.4v1.8c2.9,0,5.7,1.1,7.7,3.2c2,2,3.2,4.8,3.2,7.7c0,2.9-1.1,5.7-3.2,7.7
	c-2,2-4.8,3.2-7.7,3.2V39c1,0,2-0.1,3-0.4C39.1,39,39,39.4,39,39.8v2.8h-2.7v1.8h3.6c0.2,0,0.5-0.1,0.6-0.3c0.2-0.2,0.3-0.4,0.3-0.6
	v-3.7c0-0.2,0.1-0.4,0.2-0.6c0.1-0.2,0.3-0.3,0.5-0.4l0,0c0.2-0.1,0.4-0.1,0.6-0.1c0.2,0,0.4,0.1,0.5,0.3l2.6,2.6
	c0.2,0.2,0.4,0.3,0.6,0.3c0.2,0,0.5-0.1,0.6-0.3l5.1-5.1c0.1-0.1,0.2-0.2,0.2-0.3c0-0.1,0.1-0.2,0.1-0.3c0-0.1,0-0.2-0.1-0.3
	c0-0.1-0.1-0.2-0.2-0.3L49,32.7c-0.1-0.1-0.3-0.3-0.3-0.5c0-0.2,0-0.4,0.1-0.6l0,0c0.1-0.2,0.2-0.4,0.4-0.5c0.2-0.1,0.4-0.2,0.6-0.2
	h3.7c0.2,0,0.5-0.1,0.6-0.3c0.2-0.2,0.3-0.4,0.3-0.6v-7.2c0-0.2-0.1-0.5-0.3-0.6C53.9,21.8,53.7,21.8,53.5,21.8z M42.9,15.4
	c0.4-0.1,0.8-0.4,1.1-0.7l2-2l3.8,3.8l-2,2c-0.3,0.3-0.5,0.7-0.7,1.1C46,18,44.6,16.5,42.9,15.4z M49.7,35.9l-3.8,3.8l-2-2
	c-0.3-0.3-0.7-0.5-1.1-0.7c1.7-1.1,3.2-2.5,4.2-4.2c0.1,0.4,0.4,0.8,0.7,1.1L49.7,35.9z M52.6,29h-2.8c-0.4,0-0.8,0.1-1.2,0.3
	c0.5-2,0.5-4,0-6c0.4,0.2,0.8,0.3,1.2,0.3h2.8V29z"/>
<path class="st0" d="M36.2,29.9v1.8c1.4,0,2.8-0.6,3.8-1.6c1-1,1.6-2.4,1.6-3.8c0-1.4-0.6-2.8-1.6-3.8c-1-1-2.4-1.6-3.8-1.6v1.8
	c1,0,1.9,0.4,2.6,1.1c0.7,0.7,1.1,1.6,1.1,2.6c0,1-0.4,1.9-1.1,2.6C38.1,29.5,37.2,29.9,36.2,29.9z"/>
</svg>
